<svg width="16" height="16" viewBox="0 0 16 16" fill="none" xmlns="http://www.w3.org/2000/svg">
<mask id="mask0_15_11" style="mask-type:luminance" maskUnits="userSpaceOnUse" x="0" y="0" width="16" height="16">
<path d="M16 0H0V16H16V0Z" fill="white"/>
</mask>
<g mask="url(#mask0_15_11)">
<path fill-rule="evenodd" clip-rule="evenodd" d="M1.36987 2.06177H1.05469V2.41176V14.2293V14.5794H1.36987H11.4185H11.7337V14.2293V12.5411H11.1033V13.8794H1.68505V2.76177H11.1033V4.67646H11.7337V2.41176V2.06177H11.4185H1.36987Z" fill="#FF7100"/>
<path d="M1.05562 2.06176V2H1V2.06176H1.05562ZM1.05562 14.5794H1V14.6411H1.05562V14.5794ZM11.7346 14.5794V14.6411H11.7903V14.5794H11.7346ZM11.7346 12.5411H11.7903V12.4794H11.7346V12.5411ZM11.1043 12.5411V12.4794H11.0487V12.5411H11.1043ZM11.1043 13.8794V13.9411H11.1599V13.8794H11.1043ZM1.68598 13.8794H1.63036V13.9411H1.68598V13.8794ZM1.68598 2.76176V2.69999H1.63036V2.76176H1.68598ZM11.1043 2.76176H11.1599V2.69999H11.1043V2.76176ZM11.1043 4.67646H11.0487V4.73821H11.1043V4.67646ZM11.7346 4.67646V4.73821H11.7903V4.67646H11.7346ZM11.7346 2.06176H11.7903V2H11.7346V2.06176ZM1.05562 2.12353H1.3708V2H1.05562V2.12353ZM1.11124 2.41176V2.06176H1V2.41176H1.11124ZM1.11124 14.2293V2.41176H1V14.2293H1.11124ZM1.11124 14.5794V14.2293H1V14.5794H1.11124ZM1.3708 14.5176H1.05562V14.6411H1.3708V14.5176ZM11.4195 14.5176H1.3708V14.6411H11.4195V14.5176ZM11.7346 14.5176H11.4195V14.6411H11.7346V14.5176ZM11.679 14.2293V14.5794H11.7903V14.2293H11.679ZM11.679 12.5411V14.2293H11.7903V12.5411H11.679ZM11.7346 12.4794H11.1043V12.6029H11.7346V12.4794ZM11.1599 13.8794V12.5411H11.0487V13.8794H11.1599ZM1.68598 13.9411H11.1043V13.8176H1.68598V13.9411ZM1.63036 2.76176V13.8794H1.7416V2.76176H1.63036ZM11.1043 2.69999H1.68598V2.82352H11.1043V2.69999ZM11.1599 4.67646V2.76176H11.0487V4.67646H11.1599ZM11.1043 4.73821H11.7346V4.61468H11.1043V4.73821ZM11.679 2.41176V4.67646H11.7903V2.41176H11.679ZM11.679 2.06176V2.41176H11.7903V2.06176H11.679ZM11.4195 2.12353H11.7346V2H11.4195V2.12353ZM1.3708 2.12353H11.4195V2H1.3708V2.12353Z" fill="#FF7100"/>
<path d="M4.34524 11.9765H3.23828L5.72556 4.30127H6.9304L9.41768 11.9765H8.31072L6.35667 5.69541H6.30266L4.34524 11.9765ZM4.53086 8.97089H8.12173V9.9453H4.53086V8.97089ZM11.4315 12.089C11.013 12.089 10.6395 11.9703 10.3111 11.733C9.98481 11.4931 9.72834 11.152 9.5416 10.7098C9.3571 10.2651 9.26484 9.73169 9.26484 9.10957C9.26484 8.48745 9.35823 7.95525 9.54497 7.51305C9.73396 7.07081 9.9927 6.73227 10.3212 6.49741C10.6497 6.26257 11.022 6.14512 11.4383 6.14512C11.76 6.14512 12.0187 6.2051 12.2145 6.32504C12.4125 6.44245 12.5655 6.57985 12.6735 6.73726C12.7837 6.89467 12.8692 7.03334 12.93 7.15325H12.9907V4.30127H13.9998V11.9765H13.0143V11.0808H12.93C12.8692 11.2033 12.7815 11.3432 12.6667 11.5006C12.5542 11.658 12.399 11.7954 12.201 11.9128C12.003 12.0302 11.7465 12.089 11.4315 12.089ZM11.6542 11.1333C11.9445 11.1333 12.1897 11.0484 12.39 10.8785C12.5925 10.7061 12.7455 10.4675 12.8489 10.1627C12.9547 9.85783 13.0076 9.50306 13.0076 9.09832C13.0076 8.69856 12.9558 8.34877 12.8523 8.04895C12.7488 7.74916 12.597 7.51554 12.3967 7.34816C12.1965 7.18074 11.949 7.09705 11.6542 7.09705C11.3505 7.09705 11.0974 7.18448 10.8949 7.35938C10.6924 7.53427 10.5394 7.77288 10.4359 8.0752C10.3347 8.37751 10.2841 8.71854 10.2841 9.09832C10.2841 9.48308 10.3358 9.82913 10.4393 10.1364C10.5428 10.4437 10.6958 10.6873 10.8983 10.8672C11.103 11.0446 11.355 11.1333 11.6542 11.1333Z" fill="#FF7100"/>
</g>
</svg>
