<svg width="512" height="512" viewBox="0 0 512 512" fill="none" xmlns="http://www.w3.org/2000/svg">
<g clip-path="url(#clip0_458_5)">
<path fill-rule="evenodd" clip-rule="evenodd" d="M35.2287 59.9077H24V71.1364V450.271V461.5H35.2287H393.227H404.456V450.271V396.109H381.998V439.043H46.4575V82.3652H381.998V143.793H404.456V71.1364V59.9077H393.227H35.2287Z" fill="#FF7100"/>
<path d="M24 59.9077V57.9262H22.0185V59.9077H24ZM24 461.5H22.0185V463.482H24V461.5ZM404.456 461.5V463.482H406.437V461.5H404.456ZM404.456 396.109H406.437V394.128H404.456V396.109ZM381.998 396.109V394.128H380.017V396.109H381.998ZM381.998 439.043V441.024H383.98V439.043H381.998ZM46.4575 439.043H44.4759V441.024H46.4575V439.043ZM46.4575 82.3652V80.3836H44.4759V82.3652H46.4575ZM381.998 82.3652H383.98V80.3836H381.998V82.3652ZM381.998 143.793H380.017V145.774H381.998V143.793ZM404.456 143.793V145.774H406.437V143.793H404.456ZM404.456 59.9077H406.437V57.9262H404.456V59.9077ZM24 61.8893H35.2287V57.9262H24V61.8893ZM25.9815 71.1364V59.9077H22.0185V71.1364H25.9815ZM25.9815 450.271V71.1364H22.0185V450.271H25.9815ZM25.9815 461.5V450.271H22.0185V461.5H25.9815ZM35.2287 459.518H24V463.482H35.2287V459.518ZM393.227 459.518H35.2287V463.482H393.227V459.518ZM404.456 459.518H393.227V463.482H404.456V459.518ZM402.474 450.271V461.5H406.437V450.271H402.474ZM402.474 396.109V450.271H406.437V396.109H402.474ZM404.456 394.128H381.998V398.091H404.456V394.128ZM383.98 439.043V396.109H380.017V439.043H383.98ZM46.4575 441.024H381.998V437.061H46.4575V441.024ZM44.4759 82.3652V439.043H48.439V82.3652H44.4759ZM381.998 80.3836H46.4575V84.3467H381.998V80.3836ZM383.98 143.793V82.3652H380.017V143.793H383.98ZM381.998 145.774H404.456V141.811H381.998V145.774ZM402.474 71.1364V143.793H406.437V71.1364H402.474ZM402.474 59.9077V71.1364H406.437V59.9077H402.474ZM393.227 61.8893H404.456V57.9262H393.227V61.8893ZM35.2287 61.8893H393.227V57.9262H35.2287V61.8893Z" fill="#FF7100"/>
<path d="M141.207 378H101.77L190.383 131.76H233.307L321.92 378H282.483L212.867 176.487H210.943L141.207 378ZM147.82 281.572H275.75V312.833H147.82V281.572ZM393.666 381.607C378.757 381.607 365.451 377.8 353.748 370.185C342.125 362.49 332.988 351.548 326.335 337.361C319.762 323.093 316.475 305.98 316.475 286.021C316.475 266.062 319.802 248.988 326.455 234.801C333.188 220.613 342.406 209.752 354.109 202.217C365.812 194.683 379.077 190.915 393.906 190.915C405.369 190.915 414.587 192.839 421.56 196.687C428.614 200.454 434.065 204.862 437.912 209.912C441.84 214.962 444.886 219.411 447.05 223.258H449.214V131.76H485.164V378H450.056V349.264H447.05C444.886 353.192 441.76 357.68 437.672 362.73C433.664 367.78 428.133 372.189 421.079 375.956C414.026 379.723 404.888 381.607 393.666 381.607ZM401.601 350.947C411.941 350.947 420.679 348.222 427.812 342.771C435.026 337.241 440.477 329.586 444.164 319.807C447.932 310.027 449.815 298.645 449.815 285.66C449.815 272.835 447.972 261.613 444.285 251.994C440.597 242.376 435.187 234.881 428.053 229.511C420.919 224.14 412.102 221.455 401.601 221.455C390.78 221.455 381.763 224.26 374.549 229.871C367.335 235.482 361.884 243.137 358.197 252.836C354.59 262.535 352.786 273.476 352.786 285.66C352.786 298.004 354.63 309.106 358.317 318.965C362.004 328.824 367.455 336.639 374.669 342.411C381.963 348.102 390.941 350.947 401.601 350.947Z" fill="#FF7100"/>
</g>
<defs>
<clipPath id="clip0_458_5">
<rect width="512" height="512" fill="white"/>
</clipPath>
</defs>
</svg>
