<svg width="64" height="64" viewBox="0 0 64 64" fill="none" xmlns="http://www.w3.org/2000/svg">
<mask id="mask0_15_11" style="mask-type:luminance" maskUnits="userSpaceOnUse" x="0" y="0" width="64" height="64">
<path d="M64 0H0V64H64V0Z" fill="white"/>
</mask>
<g mask="url(#mask0_15_11)">
<path fill-rule="evenodd" clip-rule="evenodd" d="M5.47946 8.24658H4.21875V9.64657V56.9169V58.3169H5.47946H45.6741H46.9349V56.9169V50.164H44.4134V55.517H6.74019V11.0466H44.4134V18.7054H46.9349V9.64657V8.24658H45.6741H5.47946Z" fill="#FF7100"/>
<path d="M4.22248 8.24705V8H4V8.24705H4.22248ZM4.22248 58.3174H4V58.5645H4.22248V58.3174ZM46.9386 58.3174V58.5645H47.161V58.3174H46.9386ZM46.9386 50.1645H47.161V49.9175H46.9386V50.1645ZM44.4171 50.1645V49.9175H44.1947V50.1645H44.4171ZM44.4171 55.5175V55.7645H44.6396V55.5175H44.4171ZM6.74392 55.5175H6.52143V55.7645H6.74392V55.5175ZM6.74392 11.047V10.8H6.52143V11.047H6.74392ZM44.4171 11.047H44.6396V10.8H44.4171V11.047ZM44.4171 18.7058H44.1947V18.9528H44.4171V18.7058ZM46.9386 18.7058V18.9528H47.161V18.7058H46.9386ZM46.9386 8.24705H47.161V8H46.9386V8.24705ZM4.22248 8.49412H5.48319V8H4.22248V8.49412ZM4.44495 9.64704V8.24705H4V9.64704H4.44495ZM4.44495 56.9174V9.64704H4V56.9174H4.44495ZM4.44495 58.3174V56.9174H4V58.3174H4.44495ZM5.48319 58.0703H4.22248V58.5645H5.48319V58.0703ZM45.6778 58.0703H5.48319V58.5645H45.6778V58.0703ZM46.9386 58.0703H45.6778V58.5645H46.9386V58.0703ZM46.7161 56.9174V58.3174H47.161V56.9174H46.7161ZM46.7161 50.1645V56.9174H47.161V50.1645H46.7161ZM46.9386 49.9175H44.4171V50.4116H46.9386V49.9175ZM44.6396 55.5175V50.1645H44.1947V55.5175H44.6396ZM6.74392 55.7645H44.4171V55.2704H6.74392V55.7645ZM6.52143 11.047V55.5175H6.96639V11.047H6.52143ZM44.4171 10.8H6.74392V11.2941H44.4171V10.8ZM44.6396 18.7058V11.047H44.1947V18.7058H44.6396ZM44.4171 18.9528H46.9386V18.4587H44.4171V18.9528ZM46.7161 9.64704V18.7058H47.161V9.64704H46.7161ZM46.7161 8.24705V9.64704H47.161V8.24705H46.7161ZM45.6778 8.49412H46.9386V8H45.6778V8.49412ZM5.48319 8.49412H45.6778V8H5.48319V8.49412Z" fill="#FF7100"/>
<path d="M17.381 47.9062H12.9531L22.9022 17.2051H27.7216L37.6707 47.9062H33.2429L25.4267 22.7816H25.2106L17.381 47.9062ZM18.1234 35.8836H32.4869V39.7812H18.1234V35.8836ZM45.7261 48.3559C44.0521 48.3559 42.5582 47.8812 41.2442 46.9318C39.9392 45.9724 38.9134 44.6082 38.1664 42.8393C37.4284 41.0604 37.0594 38.9268 37.0594 36.4383C37.0594 33.9498 37.4329 31.821 38.1799 30.0522C38.9358 28.2832 39.9708 26.9291 41.2848 25.9896C42.5987 25.0503 44.0881 24.5805 45.753 24.5805C47.04 24.5805 48.075 24.8204 48.8579 25.3001C49.6499 25.7698 50.2619 26.3194 50.6938 26.949C51.1349 27.5787 51.4769 28.1334 51.7198 28.613H51.9628V17.2051H55.9991V47.9062H52.0573V44.3234H51.7198C51.4769 44.8131 51.1259 45.3727 50.6669 46.0023C50.2169 46.632 49.5959 47.1817 48.8039 47.6513C48.012 48.121 46.986 48.3559 45.7261 48.3559ZM46.617 44.5332C47.7779 44.5332 48.759 44.1935 49.5599 43.5138C50.3698 42.8244 50.9818 41.8699 51.3958 40.6507C51.8188 39.4313 52.0303 38.0122 52.0303 36.3933C52.0303 34.7942 51.8233 33.3951 51.4094 32.1958C50.9953 30.9966 50.3879 30.0622 49.5869 29.3926C48.7859 28.723 47.796 28.3882 46.617 28.3882C45.402 28.3882 44.3897 28.7379 43.5797 29.4375C42.7697 30.1371 42.1577 31.0915 41.7438 32.3008C41.3388 33.51 41.1362 34.8742 41.1362 36.3933C41.1362 37.9323 41.3433 39.3165 41.7572 40.5457C42.1712 41.7749 42.7832 42.7493 43.5932 43.469C44.4121 44.1785 45.4201 44.5332 46.617 44.5332Z" fill="#FF7100"/>
</g>
</svg>
