<svg id="Layer_1" data-name="Layer 1" xmlns="http://www.w3.org/2000/svg" viewBox="0 0 34 34"><defs><style>.cls-1,.cls-2{fill:#f47820;}.cls-2{fill-rule:evenodd;}</style></defs><path class="cls-1" d="M887.53,418.88v-5.46h-5.37v-.5h-4.45v0H864.45c0,.3,0,.69,0,1.29,0,.15,0,.64,0,1.37,0,3.59-.13,13,0,18.54v0a1.89,1.89,0,0,0,.31,1.07.5.5,0,0,0,.24.21,1.06,1.06,0,0,0,.62,0l.13,0H886.6a1,1,0,0,0,.56-.21c.13-.1.37-.37.37-1.08V423.06h3.37v-4.17Zm-4.38,12.89H868.82v-3h14.33Zm0-5.83H868.82v-3h14.33Zm0-5.56H868.82v-3h14.33Z" transform="translate(-862 -404.47)"/><path class="cls-2" d="M886.9,423v11.11c0,.72-.23,1-.35,1.09a.88.88,0,0,1-.53.2H866.23l-.12,0a.91.91,0,0,1-.58,0,.43.43,0,0,1-.24-.2,2.08,2.08,0,0,1-.29-1.08v0c-.13-5.5,0-14.92,0-18.51,0-.73,0-1.21,0-1.37,0-.6,0-1,0-1.29h17.14v-3H865.41a5.47,5.47,0,0,0-1.51.17,2.32,2.32,0,0,0-1.39,1.1,3.38,3.38,0,0,0-.41,1.48c0,.42,0,.94,0,1.48v.05c0,.14,0,.58,0,1.26,0,2.11-.06,6.46-.06,10.81,0,2.83,0,5.66.07,7.86a5.05,5.05,0,0,0,.83,2.79,3.64,3.64,0,0,0,1.48,1.23,3.88,3.88,0,0,0,2.07.24H886a5.82,5.82,0,0,0,3.12-.9,4.54,4.54,0,0,0,1.76-3.38V423Zm4-13.1v-5.47H888v5.47h-5.09v3H888v5.45h2.93v-5.45H896v-3Z" transform="translate(-862 -404.47)"/></svg>