<svg width="144" height="144" viewBox="0 0 144 144" fill="none" xmlns="http://www.w3.org/2000/svg">
<mask id="mask0_15_11" style="mask-type:luminance" maskUnits="userSpaceOnUse" x="0" y="0" width="144" height="144">
<path d="M144 0H0V144H144V0Z" fill="white"/>
</mask>
<g mask="url(#mask0_15_11)">
<path fill-rule="evenodd" clip-rule="evenodd" d="M12.3288 18.5549H9.49219V21.7049V128.063V131.213H12.3288H102.767H105.603V128.063V112.869H99.9301V124.913H15.1654V24.8549H99.9301V42.0872H105.603V21.7049V18.5549H102.767H12.3288Z" fill="#FF7100"/>
<path d="M9.50057 18.5559V18H9V18.5559H9.50057ZM9.50057 131.214H9V131.77H9.50057V131.214ZM105.612 131.214V131.77H106.112V131.214H105.612ZM105.612 112.87H106.112V112.314H105.612V112.87ZM99.9385 112.87V112.314H99.438V112.87H99.9385ZM99.9385 124.914V125.47H100.439V124.914H99.9385ZM15.1738 124.914H14.6732V125.47H15.1738V124.914ZM15.1738 24.8558V24.3H14.6732V24.8558H15.1738ZM99.9385 24.8558H100.439V24.3H99.9385V24.8558ZM99.9385 42.0881H99.438V42.6439H99.9385V42.0881ZM105.612 42.0881V42.6439H106.112V42.0881H105.612ZM105.612 18.5559H106.112V18H105.612V18.5559ZM9.50057 19.1118H12.3372V18H9.50057V19.1118ZM10.0011 21.7058V18.5559H9V21.7058H10.0011ZM10.0011 128.064V21.7058H9V128.064H10.0011ZM10.0011 131.214V128.064H9V131.214H10.0011ZM12.3372 130.658H9.50057V131.77H12.3372V130.658ZM102.775 130.658H12.3372V131.77H102.775V130.658ZM105.612 130.658H102.775V131.77H105.612V130.658ZM105.111 128.064V131.214H106.112V128.064H105.111ZM105.111 112.87V128.064H106.112V112.87H105.111ZM105.612 112.314H99.9385V113.426H105.612V112.314ZM100.439 124.914V112.87H99.438V124.914H100.439ZM15.1738 125.47H99.9385V124.358H15.1738V125.47ZM14.6732 24.8558V124.914H15.6744V24.8558H14.6732ZM99.9385 24.3H15.1738V25.4117H99.9385V24.3ZM100.439 42.0881V24.8558H99.438V42.0881H100.439ZM99.9385 42.6439H105.612V41.5321H99.9385V42.6439ZM105.111 21.7058V42.0881H106.112V21.7058H105.111ZM105.111 18.5559V21.7058H106.112V18.5559H105.111ZM102.775 19.1118H105.612V18H102.775V19.1118ZM12.3372 19.1118H102.775V18H12.3372V19.1118Z" fill="#FF7100"/>
<path d="M39.1072 107.789H29.1445L51.5301 38.7112H62.3736L84.7591 107.789H74.7965L57.21 51.2584H56.7239L39.1072 107.789ZM40.7777 80.7378H73.0956V89.5074H40.7777V80.7378ZM102.884 108.801C99.1173 108.801 95.7559 107.733 92.7995 105.596C89.8633 103.438 87.5551 100.368 85.8744 96.3882C84.2139 92.3856 83.3836 87.5849 83.3836 81.9859C83.3836 76.3868 84.224 71.597 85.9047 67.6172C87.6056 63.637 89.9343 60.5902 92.8907 58.4764C95.8472 56.3629 99.1982 55.3059 102.944 55.3059C105.84 55.3059 108.169 55.8456 109.93 56.9251C111.712 57.9818 113.089 59.2184 114.061 60.6351C115.053 62.0518 115.823 63.2998 116.37 64.379H116.916V38.7112H125.998V107.789H117.129V99.7274H116.37C115.823 100.829 115.033 102.088 114.001 103.505C112.988 104.922 111.591 106.158 109.809 107.215C108.027 108.272 105.719 108.801 102.884 108.801ZM104.888 100.199C107.5 100.199 109.708 99.4351 111.51 97.9059C113.332 96.3546 114.709 94.2071 115.641 91.4638C116.592 88.7203 117.068 85.5273 117.068 81.8846C117.068 78.2868 116.603 75.1387 115.671 72.4403C114.739 69.7422 113.373 67.6396 111.571 66.1332C109.768 64.6265 107.541 63.8732 104.888 63.8732C102.155 63.8732 99.8767 64.6601 98.0543 66.2342C96.2319 67.8082 94.8549 69.9557 93.9234 72.6765C93.0122 75.3974 92.5565 78.4666 92.5565 81.8846C92.5565 85.3475 93.0223 88.4619 93.9538 91.2276C94.8852 93.9934 96.2622 96.1857 98.0846 97.8049C99.9272 99.4014 102.195 100.199 104.888 100.199Z" fill="#FF7100"/>
</g>
</svg>
