<svg width="192" height="192" viewBox="0 0 192 192" fill="none" xmlns="http://www.w3.org/2000/svg">
<g clip-path="url(#clip0_458_9)">
<path fill-rule="evenodd" clip-rule="evenodd" d="M12.3387 19.8281H8V24.1668V170.661V175H12.3387H150.666H155.005V170.661V149.733H146.328V166.323H16.6774V28.5055H146.328V52.2406H155.005V24.1668V19.8281H150.666H12.3387Z" fill="#FF7100"/>
<path d="M8 19.8281V19.0625H7.23435V19.8281H8ZM8 175H7.23435V175.766H8V175ZM155.005 175V175.766H155.771V175H155.005ZM155.005 149.733H155.771V148.968H155.005V149.733ZM146.328 149.733V148.968H145.562V149.733H146.328ZM146.328 166.323V167.088H147.093V166.323H146.328ZM16.6774 166.323H15.9117V167.088H16.6774V166.323ZM16.6774 28.5055V27.7398H15.9117V28.5055H16.6774ZM146.328 28.5055H147.093V27.7398H146.328V28.5055ZM146.328 52.2406H145.562V53.0063H146.328V52.2406ZM155.005 52.2406V53.0063H155.771V52.2406H155.005ZM155.005 19.8281H155.771V19.0625H155.005V19.8281ZM8 20.5938H12.3387V19.0625H8V20.5938ZM8.76565 24.1668V19.8281H7.23435V24.1668H8.76565ZM8.76565 170.661V24.1668H7.23435V170.661H8.76565ZM8.76565 175V170.661H7.23435V175H8.76565ZM12.3387 174.234H8V175.766H12.3387V174.234ZM150.666 174.234H12.3387V175.766H150.666V174.234ZM155.005 174.234H150.666V175.766H155.005V174.234ZM154.239 170.661V175H155.771V170.661H154.239ZM154.239 149.733V170.661H155.771V149.733H154.239ZM155.005 148.968H146.328V150.499H155.005V148.968ZM147.093 166.323V149.733H145.562V166.323H147.093ZM16.6774 167.088H146.328V165.557H16.6774V167.088ZM15.9117 28.5055V166.323H17.443V28.5055H15.9117ZM146.328 27.7398H16.6774V29.2711H146.328V27.7398ZM147.093 52.2406V28.5055H145.562V52.2406H147.093ZM146.328 53.0063H155.005V51.475H146.328V53.0063ZM154.239 24.1668V52.2406H155.771V24.1668H154.239ZM154.239 19.8281V24.1668H155.771V19.8281H154.239ZM150.666 20.5938H155.005V19.0625H150.666V20.5938ZM12.3387 20.5938H150.666V19.0625H12.3387V20.5938Z" fill="#FF7100"/>
<path d="M53.2877 143H38.0496L72.2889 47.8549H88.8742L123.113 143H107.875L80.9764 65.1371H80.2331L53.2877 143ZM55.8429 105.741H105.274V117.82H55.8429V105.741ZM150.836 144.394C145.075 144.394 139.934 142.923 135.412 139.98C130.921 137.007 127.39 132.779 124.819 127.297C122.28 121.784 121.01 115.172 121.01 107.46C121.01 99.748 122.295 93.151 124.866 87.6691C127.467 82.1871 131.029 77.9904 135.551 75.0791C140.073 72.1677 145.199 70.7121 150.928 70.7121C155.357 70.7121 158.919 71.4554 161.614 72.942C164.339 74.3977 166.445 76.1011 167.932 78.0523C169.45 80.0036 170.626 81.7225 171.463 83.2091H172.299V47.8549H186.19V143H172.624V131.897H171.463C170.626 133.414 169.419 135.149 167.839 137.1C166.29 139.051 164.153 140.755 161.428 142.21C158.702 143.666 155.172 144.394 150.836 144.394ZM153.902 132.547C157.897 132.547 161.273 131.494 164.03 129.388C166.817 127.251 168.923 124.293 170.348 120.515C171.803 116.736 172.531 112.338 172.531 107.321C172.531 102.365 171.819 98.0291 170.394 94.3125C168.969 90.5959 166.879 87.7 164.122 85.6249C161.366 83.5498 157.959 82.5123 153.902 82.5123C149.721 82.5123 146.236 83.5963 143.449 85.7643C140.661 87.9323 138.555 90.8901 137.131 94.6377C135.737 98.3853 135.04 102.613 135.04 107.321C135.04 112.09 135.752 116.38 137.177 120.189C138.602 123.999 140.708 127.019 143.495 129.249C146.314 131.448 149.783 132.547 153.902 132.547Z" fill="#FF7100"/>
</g>
<defs>
<clipPath id="clip0_458_9">
<rect width="192" height="192" fill="white"/>
</clipPath>
</defs>
</svg>
