<svg width="24" height="24" viewBox="0 0 24 24" fill="none" xmlns="http://www.w3.org/2000/svg">
<mask id="mask0_15_11" style="mask-type:luminance" maskUnits="userSpaceOnUse" x="0" y="0" width="24" height="24">
<path d="M24 0H0V24H24V0Z" fill="white"/>
</mask>
<g mask="url(#mask0_15_11)">
<path fill-rule="evenodd" clip-rule="evenodd" d="M2.0548 3.09253H1.58203V3.61753V21.3439V21.8689H2.0548H17.1278H17.6006V21.3439V18.8116H16.655V20.8189H2.52757V4.14253H16.655V7.01457H17.6006V3.61753V3.09253H17.1278H2.0548Z" fill="#FF7100"/>
<path d="M1.58343 3.09264V3H1.5V3.09264H1.58343ZM1.58343 21.869H1.5V21.9617H1.58343V21.869ZM17.602 21.869V21.9617H17.6854V21.869H17.602ZM17.602 18.8117H17.6854V18.7191H17.602V18.8117ZM16.6564 18.8117V18.7191H16.573V18.8117H16.6564ZM16.6564 20.8191V20.9117H16.7399V20.8191H16.6564ZM2.52897 20.8191H2.44554V20.9117H2.52897V20.8191ZM2.52897 4.14264V4.04999H2.44554V4.14264H2.52897ZM16.6564 4.14264H16.7399V4.04999H16.6564V4.14264ZM16.6564 7.01469H16.573V7.10731H16.6564V7.01469ZM17.602 7.01469V7.10731H17.6854V7.01469H17.602ZM17.602 3.09264H17.6854V3H17.602V3.09264ZM1.58343 3.18529H2.0562V3H1.58343V3.18529ZM1.66686 3.61764V3.09264H1.5V3.61764H1.66686ZM1.66686 21.344V3.61764H1.5V21.344H1.66686ZM1.66686 21.869V21.344H1.5V21.869H1.66686ZM2.0562 21.7764H1.58343V21.9617H2.0562V21.7764ZM17.1292 21.7764H2.0562V21.9617H17.1292V21.7764ZM17.602 21.7764H17.1292V21.9617H17.602V21.7764ZM17.5185 21.344V21.869H17.6854V21.344H17.5185ZM17.5185 18.8117V21.344H17.6854V18.8117H17.5185ZM17.602 18.7191H16.6564V18.9043H17.602V18.7191ZM16.7399 20.8191V18.8117H16.573V20.8191H16.7399ZM2.52897 20.9117H16.6564V20.7264H2.52897V20.9117ZM2.44554 4.14264V20.8191H2.6124V4.14264H2.44554ZM16.6564 4.04999H2.52897V4.23529H16.6564V4.04999ZM16.7399 7.01469V4.14264H16.573V7.01469H16.7399ZM16.6564 7.10731H17.602V6.92202H16.6564V7.10731ZM17.5185 3.61764V7.01469H17.6854V3.61764H17.5185ZM17.5185 3.09264V3.61764H17.6854V3.09264H17.5185ZM17.1292 3.18529H17.602V3H17.1292V3.18529ZM2.0562 3.18529H17.1292V3H2.0562V3.18529Z" fill="#FF7100"/>
<path d="M6.51786 17.9648H4.85742L8.58834 6.4519H10.3956L14.1265 17.9648H12.4661L9.535 8.54311H9.45399L6.51786 17.9648ZM6.79629 13.4563H12.1826V14.9179H6.79629V13.4563ZM17.1473 18.1335C16.5196 18.1335 15.9593 17.9555 15.4666 17.5994C14.9772 17.2396 14.5925 16.7281 14.3124 16.0647C14.0357 15.3976 13.8973 14.5975 13.8973 13.6644C13.8973 12.7312 14.0373 11.9329 14.3175 11.2696C14.6009 10.6062 14.989 10.0984 15.4818 9.74611C15.9745 9.39386 16.533 9.21769 17.1574 9.21769C17.64 9.21769 18.0281 9.30764 18.3217 9.48756C18.6187 9.66368 18.8482 9.86978 19.0102 10.1059C19.1756 10.342 19.3038 10.55 19.3949 10.7299H19.486V6.4519H20.9997V17.9648H19.5215V16.6213H19.3949C19.3038 16.8049 19.1722 17.0148 19.0001 17.2509C18.8313 17.487 18.5985 17.6931 18.3015 17.8692C18.0045 18.0454 17.6198 18.1335 17.1473 18.1335ZM17.4814 16.7C17.9167 16.7 18.2846 16.5725 18.5849 16.3177C18.8887 16.0591 19.1182 15.7012 19.2734 15.244C19.4321 14.7867 19.5113 14.2546 19.5113 13.6475C19.5113 13.0478 19.4338 12.5232 19.2785 12.0734C19.1232 11.6237 18.8955 11.2733 18.5951 11.0222C18.2947 10.7711 17.9235 10.6456 17.4814 10.6456C17.0258 10.6456 16.6461 10.7767 16.3424 11.0391C16.0386 11.3014 15.8091 11.6593 15.6539 12.1128C15.502 12.5663 15.4261 13.0778 15.4261 13.6475C15.4261 14.2246 15.5037 14.7437 15.659 15.2046C15.8142 15.6656 16.0437 16.031 16.3474 16.3009C16.6545 16.5669 17.0325 16.7 17.4814 16.7Z" fill="#FF7100"/>
</g>
</svg>
