<svg width="32" height="32" viewBox="0 0 32 32" fill="none" xmlns="http://www.w3.org/2000/svg">
<mask id="mask0_15_11" style="mask-type:luminance" maskUnits="userSpaceOnUse" x="0" y="0" width="32" height="32">
<path d="M32 0H0V32H32V0Z" fill="white"/>
</mask>
<g mask="url(#mask0_15_11)">
<path fill-rule="evenodd" clip-rule="evenodd" d="M2.73973 4.12329H2.10938V4.82329V28.4585V29.1585H2.73973H22.8371H23.4674V28.4585V25.082H22.2067V27.7585H3.3701V5.52329H22.2067V9.35268H23.4674V4.82329V4.12329H22.8371H2.73973Z" fill="#FF7100"/>
<path d="M2.11124 4.12353V4H2V4.12353H2.11124ZM2.11124 29.1587H2V29.2823H2.11124V29.1587ZM23.4693 29.1587V29.2823H23.5805V29.1587H23.4693ZM23.4693 25.0822H23.5805V24.9587H23.4693V25.0822ZM22.2085 25.0822V24.9587H22.0973V25.0822H22.2085ZM22.2085 27.7587V27.8822H22.3198V27.7587H22.2085ZM3.37196 27.7587H3.26071V27.8822H3.37196V27.7587ZM3.37196 5.52352V5.39999H3.26071V5.52352H3.37196ZM22.2085 5.52352H22.3198V5.39999H22.2085V5.52352ZM22.2085 9.35292H22.0973V9.47641H22.2085V9.35292ZM23.4693 9.35292V9.47641H23.5805V9.35292H23.4693ZM23.4693 4.12353H23.5805V4H23.4693V4.12353ZM2.11124 4.24706H2.74159V4H2.11124V4.24706ZM2.22248 4.82352V4.12353H2V4.82352H2.22248ZM2.22248 28.4587V4.82352H2V28.4587H2.22248ZM2.22248 29.1587V28.4587H2V29.1587H2.22248ZM2.74159 29.0351H2.11124V29.2823H2.74159V29.0351ZM22.8389 29.0351H2.74159V29.2823H22.8389V29.0351ZM23.4693 29.0351H22.8389V29.2823H23.4693V29.0351ZM23.358 28.4587V29.1587H23.5805V28.4587H23.358ZM23.358 25.0822V28.4587H23.5805V25.0822H23.358ZM23.4693 24.9587H22.2085V25.2058H23.4693V24.9587ZM22.3198 27.7587V25.0822H22.0973V27.7587H22.3198ZM3.37196 27.8822H22.2085V27.6352H3.37196V27.8822ZM3.26071 5.52352V27.7587H3.4832V5.52352H3.26071ZM22.2085 5.39999H3.37196V5.64705H22.2085V5.39999ZM22.3198 9.35292V5.52352H22.0973V9.35292H22.3198ZM22.2085 9.47641H23.4693V9.22936H22.2085V9.47641ZM23.358 4.82352V9.35292H23.5805V4.82352H23.358ZM23.358 4.12353V4.82352H23.5805V4.12353H23.358ZM22.8389 4.24706H23.4693V4H22.8389V4.24706ZM2.74159 4.24706H22.8389V4H2.74159V4.24706Z" fill="#FF7100"/>
<path d="M8.69048 23.9531H6.47656L11.4511 8.60254H13.8608L18.8354 23.9531H16.6214L12.7133 11.3908H12.6053L8.69048 23.9531ZM9.06172 17.9418H16.2435V19.8906H9.06172V17.9418ZM22.863 24.1779C22.0261 24.1779 21.2791 23.9406 20.6221 23.4659C19.9696 22.9862 19.4567 22.3041 19.0832 21.4197C18.7142 20.5302 18.5297 19.4634 18.5297 18.2191C18.5297 16.9749 18.7165 15.9105 19.0899 15.0261C19.4679 14.1416 19.9854 13.4645 20.6424 12.9948C21.2994 12.5251 22.044 12.2902 22.8765 12.2902C23.52 12.2902 24.0375 12.4102 24.429 12.6501C24.8249 12.8849 25.131 13.1597 25.3469 13.4745C25.5674 13.7893 25.7384 14.0667 25.8599 14.3065H25.9814V8.60254H27.9996V23.9531H26.0287V22.1617H25.8599C25.7384 22.4066 25.5629 22.6863 25.3334 23.0012C25.1084 23.316 24.7979 23.5908 24.4019 23.8257C24.006 24.0605 23.493 24.1779 22.863 24.1779ZM23.3085 22.2666C23.889 22.2666 24.3795 22.0967 24.7799 21.7569C25.1849 21.4122 25.4909 20.935 25.6979 20.3253C25.9094 19.7157 26.0151 19.0061 26.0151 18.1966C26.0151 17.3971 25.9117 16.6975 25.7047 16.0979C25.4977 15.4983 25.1939 15.0311 24.7935 14.6963C24.393 14.3615 23.898 14.1941 23.3085 14.1941C22.701 14.1941 22.1948 14.369 21.7898 14.7188C21.3849 15.0685 21.0789 15.5458 20.8719 16.1504C20.6694 16.755 20.5681 17.4371 20.5681 18.1966C20.5681 18.9662 20.6716 19.6583 20.8786 20.2729C21.0856 20.8875 21.3916 21.3747 21.7966 21.7345C22.2061 22.0893 22.7101 22.2666 23.3085 22.2666Z" fill="#FF7100"/>
</g>
</svg>
